<svg width="36" height="36" viewBox="0 0 36 36" fill="none" xmlns="http://www.w3.org/2000/svg">
<path fill-rule="evenodd" clip-rule="evenodd" d="M26 3H10C6.13401 3 3 6.13401 3 10V26C3 29.866 6.13401 33 10 33H26C29.866 33 33 29.866 33 26V10C33 6.13401 29.866 3 26 3ZM10 0C4.47715 0 0 4.47715 0 10V26C0 31.5228 4.47715 36 10 36H26C31.5228 36 36 31.5228 36 26V10C36 4.47715 31.5228 0 26 0H10ZM18 24C21.3137 24 24 21.3137 24 18C24 14.6863 21.3137 12 18 12C14.6863 12 12 14.6863 12 18C12 21.3137 14.6863 24 18 24ZM18 27C22.9706 27 27 22.9706 27 18C27 13.0294 22.9706 9 18 9C13.0294 9 9 13.0294 9 18C9 22.9706 13.0294 27 18 27ZM28 10C29.1046 10 30 9.10457 30 8C30 6.89543 29.1046 6 28 6C26.8954 6 26 6.89543 26 8C26 9.10457 26.8954 10 28 10Z" fill="#080808"/>
</svg>
