<svg width="28" height="28" viewBox="0 0 28 28" fill="none" xmlns="http://www.w3.org/2000/svg">
<path fill-rule="evenodd" clip-rule="evenodd" d="M10 3H18C21.866 3 25 6.13401 25 10V18C25 21.866 21.866 25 18 25H17.8166V18.6521H20.2766L20.9754 15.6094H17.817V13.5307C17.8166 12.6796 18.2816 11.762 19.504 11.762H20.9762V8.55788L18.7588 8.55553C15.6176 8.55553 14.1267 10.4251 14.1267 13.0868V15.6082H11.6667V18.6525H14.1267V25H10C6.13401 25 3 21.866 3 18V10C3 6.13401 6.13401 3 10 3ZM0 10C0 4.47715 4.47715 0 10 0H18C23.5228 0 28 4.47715 28 10V18C28 23.5228 23.5228 28 18 28H10C4.47715 28 0 23.5228 0 18V10Z" fill="#080808"/>
</svg>
