<svg width="90" height="14" viewBox="0 0 90 14" fill="none" xmlns="http://www.w3.org/2000/svg">
<path fill-rule="evenodd" clip-rule="evenodd" d="M36.5729 0C36.9177 0 37.1972 0.279515 37.1972 0.624315V9.69148C37.1972 10.0363 36.9177 10.3158 36.5729 10.3158C36.2281 10.3158 35.9486 10.0363 35.9486 9.69147V9.15724C35.9486 9.13784 35.9328 9.12211 35.9134 9.12211C35.8991 9.12211 35.8862 9.1309 35.8807 9.14409C35.5053 10.0431 34.7445 10.4926 33.5982 10.4926C33.1086 10.4926 32.6581 10.4042 32.2468 10.2274C31.8354 10.0407 31.478 9.78035 31.1744 9.44632C30.8806 9.10246 30.6505 8.69474 30.484 8.22316C30.3175 7.74175 30.2343 7.20632 30.2343 6.61684C30.2343 6.03719 30.3175 5.51158 30.484 5.04C30.6505 4.56842 30.8806 4.16561 31.1744 3.83158C31.478 3.49754 31.8354 3.24211 32.2468 3.06526C32.6581 2.8786 33.1086 2.78526 33.5982 2.78526C33.8332 2.78526 34.0634 2.80982 34.2886 2.85895C34.5237 2.90807 34.744 2.98667 34.9497 3.09474C35.1553 3.20281 35.3365 3.34526 35.4932 3.52211C35.6548 3.68423 35.7841 3.88802 35.8811 4.13347C35.8864 4.14689 35.8993 4.15579 35.9137 4.15579C35.933 4.15579 35.9486 4.1402 35.9486 4.12097V0.624314C35.9486 0.279515 36.2281 0 36.5729 0ZM35.9486 7.36842V6.08632C35.9486 5.68351 35.8898 5.32491 35.7723 5.01053C35.6646 4.69614 35.5177 4.43088 35.3316 4.21474C35.1455 3.98877 34.9301 3.82176 34.6852 3.71368C34.4404 3.59579 34.1809 3.53684 33.9067 3.53684C33.6031 3.53684 33.3142 3.59579 33.04 3.71368C32.7658 3.82176 32.521 4.00351 32.3055 4.25895C32.0999 4.50456 31.9334 4.82386 31.8061 5.21684C31.6885 5.60982 31.6298 6.08632 31.6298 6.64632C31.6298 7.19649 31.6885 7.66807 31.8061 8.06105C31.9334 8.45404 32.0999 8.77333 32.3055 9.01895C32.5112 9.26456 32.7511 9.44632 33.0253 9.56421C33.2995 9.67228 33.5933 9.72632 33.9067 9.72632C34.1907 9.72632 34.4551 9.66737 34.6999 9.54947C34.9546 9.42175 35.17 9.25474 35.3463 9.04842C35.5324 8.83228 35.6793 8.58175 35.787 8.29684C35.8947 8.00211 35.9486 7.69263 35.9486 7.36842ZM13.3744 13.3757C13.3744 13.7205 13.6539 14 13.9987 14C14.3435 14 14.623 13.7205 14.623 13.3757V9.14219C14.623 9.12296 14.6386 9.10737 14.6578 9.10737C14.6722 9.10737 14.6852 9.11627 14.6904 9.12969C14.7872 9.37542 14.9116 9.58412 15.0637 9.75579C15.2302 9.93263 15.4162 10.0751 15.6219 10.1832C15.8276 10.2912 16.043 10.3698 16.2683 10.4189C16.5033 10.4681 16.7383 10.4926 16.9734 10.4926C17.463 10.4926 17.9135 10.4042 18.3248 10.2274C18.7361 10.0407 19.0887 9.78035 19.3825 9.44632C19.6861 9.11228 19.9211 8.70947 20.0876 8.2379C20.2541 7.75649 20.3373 7.22597 20.3373 6.64632C20.3373 6.05684 20.2541 5.52632 20.0876 5.05474C19.9211 4.58316 19.6861 4.18035 19.3825 3.84632C19.0887 3.50246 18.7361 3.24211 18.3248 3.06526C17.9135 2.8786 17.463 2.78526 16.9734 2.78526C15.8175 2.78526 15.0566 3.22982 14.6907 4.11895C14.6853 4.13219 14.6724 4.14105 14.6581 4.14105C14.6387 4.14105 14.623 4.12536 14.623 4.106V3.57168C14.623 3.22688 14.3435 2.94737 13.9987 2.94737C13.6539 2.94737 13.3744 3.22688 13.3744 3.57168V13.3757ZM14.623 7.17684V5.89474C14.623 5.57053 14.672 5.26596 14.7699 4.98105C14.8776 4.68632 15.0245 4.43579 15.2106 4.22947C15.3967 4.01333 15.6121 3.84632 15.8569 3.72842C16.1116 3.6007 16.3809 3.53684 16.6649 3.53684C16.9685 3.53684 17.2574 3.59579 17.5316 3.71368C17.8156 3.82176 18.0604 3.9986 18.2661 4.24421C18.4717 4.48982 18.6333 4.80912 18.7508 5.20211C18.8781 5.59509 18.9418 6.06667 18.9418 6.61684C18.9418 7.17684 18.8781 7.65333 18.7508 8.04632C18.6333 8.4393 18.4668 8.76351 18.2514 9.01895C18.0457 9.26456 17.8058 9.44632 17.5316 9.56421C17.2574 9.67228 16.9685 9.72632 16.6649 9.72632C16.3907 9.72632 16.1311 9.67228 15.8863 9.56421C15.6415 9.44632 15.426 9.2793 15.24 9.06316C15.0539 8.83719 14.8874 8.55228 14.7699 8.2379C14.6622 7.92351 14.623 7.57965 14.623 7.17684ZM28.4526 6.95579C28.6235 6.95579 28.7621 6.81723 28.7621 6.64632C28.7621 5.98807 28.669 5.41825 28.483 4.93684C28.2969 4.45544 28.0423 4.05754 27.7191 3.74316C27.4057 3.42877 27.0385 3.19298 26.6174 3.03579C26.1963 2.8786 25.7507 2.8 25.2806 2.8C24.7812 2.8 24.3209 2.88842 23.8998 3.06526C23.4787 3.23228 23.1114 3.48281 22.7981 3.81684C22.4847 4.14105 22.2398 4.53895 22.0636 5.01053C21.8873 5.47228 21.7992 5.9979 21.7992 6.58737C21.7992 7.0786 21.8726 7.56 22.0195 8.03158C22.1762 8.49333 22.4063 8.91088 22.7099 9.28421C23.0233 9.64772 23.415 9.94246 23.8851 10.1684C24.365 10.3846 24.9281 10.4926 25.5744 10.4926C26.2012 10.4926 26.779 10.3846 27.3078 10.1684C27.7305 9.98783 28.1093 9.74761 28.4444 9.44778C28.5857 9.32135 28.582 9.10359 28.4482 8.96931C28.3187 8.83943 28.1112 8.83175 27.9704 8.94917C27.8538 9.04633 27.7407 9.13836 27.631 9.22526C27.4547 9.37263 27.2735 9.49544 27.0875 9.59368C26.9014 9.69193 26.7055 9.77053 26.4999 9.82947C26.304 9.8786 26.0837 9.90316 25.8388 9.90316C25.5646 9.90316 25.2708 9.86386 24.9574 9.78526C24.6539 9.69684 24.3699 9.54456 24.1054 9.32842C23.841 9.11228 23.6207 8.81263 23.4444 8.42947C23.0962 7.67257 23.8554 6.95579 24.6886 6.95579H28.4526ZM24.3229 6.36632C23.6917 6.36632 23.1645 5.84865 23.2975 5.23158C23.3856 4.85825 23.513 4.52912 23.6794 4.24421C23.8557 3.9593 24.0761 3.73333 24.3405 3.56632C24.6049 3.38947 24.9183 3.30105 25.2806 3.30105C25.9759 3.30105 26.5146 3.57614 26.8965 4.12632C26.9646 4.22021 27.0267 4.32032 27.0829 4.42667C27.5993 5.40312 26.5886 6.36632 25.4841 6.36632H24.3229ZM38.8059 9.80368C38.8059 10.0967 39.0435 10.3342 39.3365 10.3342H48.5435C48.8365 10.3342 49.074 10.0967 49.074 9.80368C49.074 9.51068 48.8365 9.27316 48.5435 9.27316H39.3365C39.0435 9.27316 38.8059 9.51068 38.8059 9.80368ZM51.9354 9.69148C51.9354 10.0363 51.6559 10.3158 51.3111 10.3158C50.9663 10.3158 50.6868 10.0363 50.6868 9.69148V3.57168C50.6868 3.22688 50.9663 2.94737 51.3111 2.94737C51.6559 2.94737 51.9354 3.22688 51.9354 3.57168V4.10585C51.9354 4.12529 51.9512 4.14105 51.9706 4.14105C51.9849 4.14105 51.9977 4.13243 52.0033 4.11929C52.1193 3.84436 52.2631 3.62074 52.4349 3.44842C52.621 3.27158 52.8168 3.13404 53.0225 3.03579C53.2281 2.93754 53.4338 2.87368 53.6394 2.84421C53.8451 2.80491 54.0214 2.78526 54.1683 2.78526C54.4915 2.78526 54.7657 2.82947 54.9909 2.91789C55.2259 3.00632 55.4267 3.1193 55.5932 3.25684C55.7597 3.39439 55.8968 3.54667 56.0045 3.71368C56.1007 3.85412 56.1774 3.99456 56.2346 4.13499C56.2468 4.16506 56.2757 4.18526 56.3082 4.18526C56.3381 4.18526 56.3652 4.1681 56.3786 4.14138C56.5206 3.85702 56.6848 3.62604 56.8712 3.44842C57.0768 3.26175 57.2874 3.1193 57.5028 3.02105C57.7183 2.92281 57.9239 2.85895 58.1198 2.82947C58.3157 2.8 58.4871 2.78526 58.6339 2.78526C59.1432 2.78526 59.5496 2.86877 59.8532 3.03579C60.1666 3.19298 60.4016 3.39439 60.5583 3.64C60.7248 3.87579 60.8325 4.13614 60.8815 4.42105C60.9304 4.69614 60.9549 4.94667 60.9549 5.17263V9.69148C60.9549 10.0363 60.6754 10.3158 60.3306 10.3158C59.9858 10.3158 59.7063 10.0363 59.7063 9.69148V5.6C59.7063 5.26597 59.6867 4.97123 59.6475 4.71579C59.6182 4.46035 59.5496 4.24421 59.4419 4.06737C59.344 3.89053 59.202 3.75789 59.0159 3.66947C58.8298 3.58105 58.585 3.53684 58.2814 3.53684C57.8701 3.53684 57.542 3.63018 57.2972 3.81684C57.0621 4.00351 56.881 4.22947 56.7537 4.49474C56.6264 4.76 56.5431 5.04491 56.5039 5.34947C56.4648 5.64421 56.4452 5.89965 56.4452 6.11579V9.69148C56.4452 10.0363 56.1657 10.3158 55.8209 10.3158C55.4761 10.3158 55.1966 10.0363 55.1966 9.69148V5.6C55.1966 5.42316 55.1868 5.21684 55.1672 4.98105C55.1574 4.74526 55.1084 4.5193 55.0203 4.30316C54.9321 4.08702 54.795 3.90526 54.609 3.75789C54.4327 3.61053 54.1781 3.53684 53.8451 3.53684C53.3848 3.53684 53.0274 3.64 52.7728 3.84632C52.5181 4.04281 52.3272 4.28351 52.1999 4.56842C52.0823 4.84351 52.0089 5.12842 51.9795 5.42316C51.9501 5.70807 51.9354 5.93895 51.9354 6.11579V9.69148ZM67.6736 3.09474C67.2819 2.88842 66.7286 2.78526 66.0137 2.78526C65.5828 2.78526 65.2155 2.82456 64.912 2.90316C64.6084 2.97193 64.344 3.06526 64.1187 3.18316C63.9033 3.30105 63.7172 3.43368 63.5605 3.58105C63.5254 3.61629 63.4905 3.65153 63.456 3.68677C63.2741 3.87222 63.2796 4.16873 63.463 4.3527C63.6844 4.57486 64.0538 4.52867 64.2405 4.27661C64.2635 4.24547 64.2866 4.21502 64.3097 4.18526C64.4468 3.9986 64.5937 3.84632 64.7504 3.72842C64.9169 3.6007 65.1029 3.50246 65.3086 3.43368C65.5142 3.36491 65.7542 3.33053 66.0284 3.33053C66.6649 3.33053 67.1007 3.52702 67.3358 3.92C67.5806 4.31298 67.703 4.91228 67.703 5.7179C67.703 5.92936 67.4149 6.04166 67.243 5.91858C67.0849 5.80547 66.9102 5.7091 66.7188 5.62947C66.3271 5.45263 65.9109 5.36421 65.4702 5.36421C65.0295 5.36421 64.6378 5.44281 64.295 5.6C63.9522 5.75719 63.6633 5.96351 63.4283 6.21895C63.1933 6.46456 63.017 6.74456 62.8995 7.05895C62.782 7.37333 62.7232 7.68772 62.7232 8.00211C62.7232 8.30667 62.7771 8.60632 62.8848 8.90105C62.9925 9.19579 63.1541 9.46105 63.3695 9.69684C63.585 9.93263 63.8543 10.1242 64.1775 10.2716C64.5006 10.4189 64.8728 10.4926 65.2939 10.4926C65.7346 10.4926 66.1753 10.414 66.616 10.2568C66.9583 10.1271 67.2534 9.96475 67.5012 9.76979C67.5799 9.70779 67.703 9.76142 67.703 9.86169C67.703 10.1125 67.9063 10.3158 68.1571 10.3158H68.2979C68.6265 10.3158 68.8929 10.0494 68.8929 9.72085V6.29263C68.8929 5.85053 68.8782 5.41825 68.8488 4.99579C68.8194 4.57333 68.7117 4.2 68.5256 3.87579C68.3493 3.55158 68.0654 3.29123 67.6736 3.09474ZM67.4827 6.98526C67.5806 7.14246 67.654 7.28 67.703 7.39789V8.53263C67.6149 8.72912 67.5023 8.91088 67.3651 9.0779C67.228 9.24491 67.0714 9.39228 66.8951 9.52C66.7286 9.63789 66.5474 9.73123 66.3516 9.8C66.1655 9.86877 65.9794 9.90316 65.7933 9.90316C65.5975 9.90316 65.3918 9.86386 65.1764 9.78526C64.9609 9.70667 64.7651 9.58877 64.5888 9.43158C64.4125 9.26456 64.2656 9.06807 64.1481 8.84211C64.0404 8.60632 63.9865 8.33123 63.9865 8.01684C63.9865 7.75158 64.0306 7.49614 64.1187 7.25053C64.2069 7.00491 64.3293 6.79368 64.486 6.61684C64.6524 6.43018 64.8532 6.28281 65.0882 6.17474C65.3233 6.05684 65.5828 5.99789 65.8668 5.99789C66.1508 5.99789 66.3956 6.05193 66.6013 6.16C66.8069 6.25825 66.9832 6.38105 67.1301 6.52842C67.277 6.67579 67.3945 6.82807 67.4827 6.98526ZM72.4924 9.69148C72.4924 10.0363 72.2129 10.3158 71.8681 10.3158C71.5233 10.3158 71.2438 10.0363 71.2438 9.69148V3.57168C71.2438 3.22688 71.5233 2.94737 71.8681 2.94737H71.8956C72.2252 2.94737 72.4924 3.21458 72.4924 3.54421V4.10585C72.4924 4.12529 72.5082 4.14105 72.5276 4.14105C72.5419 4.14105 72.5547 4.13243 72.5603 4.1193C72.6762 3.84437 72.8201 3.62074 72.9919 3.44842C73.1779 3.27158 73.3738 3.13404 73.5795 3.03579C73.7851 2.93754 73.9908 2.87368 74.1964 2.84421C74.4021 2.80491 74.5784 2.78526 74.7253 2.78526C75.0484 2.78526 75.3226 2.82947 75.5479 2.91789C75.7829 3.00632 75.9837 3.1193 76.1502 3.25684C76.3167 3.39439 76.4538 3.54667 76.5615 3.71368C76.6577 3.85412 76.7344 3.99456 76.7916 4.13499C76.8038 4.16506 76.8327 4.18526 76.8652 4.18526C76.895 4.18526 76.9222 4.1681 76.9356 4.14138C77.0776 3.85703 77.2418 3.62604 77.4282 3.44842C77.6338 3.26175 77.8444 3.1193 78.0598 3.02105C78.2753 2.92281 78.4809 2.85895 78.6768 2.82947C78.8727 2.8 79.044 2.78526 79.1909 2.78526C79.7002 2.78526 80.1066 2.86877 80.4102 3.03579C80.7236 3.19298 80.9586 3.39439 81.1153 3.64C81.2818 3.87579 81.3895 4.13614 81.4385 4.42105C81.4874 4.69614 81.5119 4.94667 81.5119 5.17263V9.69148C81.5119 10.0363 81.2324 10.3158 80.8876 10.3158C80.5428 10.3158 80.2633 10.0363 80.2633 9.69148V5.6C80.2633 5.26597 80.2437 4.97123 80.2045 4.71579C80.1751 4.46035 80.1066 4.24421 79.9989 4.06737C79.9009 3.89053 79.7589 3.75789 79.5729 3.66947C79.3868 3.58105 79.142 3.53684 78.8384 3.53684C78.4271 3.53684 78.099 3.63018 77.8542 3.81684C77.6191 4.00351 77.438 4.22947 77.3107 4.49474C77.1833 4.76 77.1001 5.04491 77.0609 5.34947C77.0218 5.64421 77.0022 5.89965 77.0022 6.11579V9.69148C77.0022 10.0363 76.7227 10.3158 76.3779 10.3158C76.0331 10.3158 75.7535 10.0363 75.7535 9.69148V5.6C75.7535 5.42316 75.7438 5.21684 75.7242 4.98105C75.7144 4.74526 75.6654 4.5193 75.5773 4.30316C75.4891 4.08702 75.352 3.90526 75.1659 3.75789C74.9897 3.61053 74.7351 3.53684 74.4021 3.53684C73.9418 3.53684 73.5844 3.64 73.3297 3.84632C73.0751 4.04281 72.8841 4.28351 72.7568 4.56842C72.6393 4.84351 72.5659 5.12842 72.5365 5.42316C72.5071 5.70807 72.4924 5.93895 72.4924 6.11579V9.69148ZM88.2306 3.09474C87.8389 2.88842 87.2856 2.78526 86.5707 2.78526C86.1398 2.78526 85.7725 2.82456 85.4689 2.90316C85.1654 2.97193 84.9009 3.06526 84.6757 3.18316C84.4603 3.30105 84.2742 3.43368 84.1175 3.58105C84.0824 3.61629 84.0475 3.65153 84.013 3.68677C83.831 3.87222 83.8366 4.16873 84.02 4.3527C84.2414 4.57486 84.6108 4.52867 84.7975 4.27661C84.8205 4.24546 84.8436 4.21502 84.8667 4.18526C85.0038 3.9986 85.1507 3.84632 85.3074 3.72842C85.4738 3.6007 85.6599 3.50246 85.8656 3.43368C86.0712 3.36491 86.3112 3.33053 86.5854 3.33053C87.2219 3.33053 87.6577 3.52702 87.8928 3.92C88.1376 4.31298 88.26 4.91228 88.26 5.7179C88.26 5.92936 87.9719 6.04166 87.8 5.91858C87.6419 5.80547 87.4672 5.7091 87.2758 5.62947C86.8841 5.45263 86.4678 5.36421 86.0272 5.36421C85.5865 5.36421 85.1947 5.44281 84.852 5.6C84.5092 5.75719 84.2203 5.96351 83.9853 6.21895C83.7503 6.46456 83.574 6.74456 83.4565 7.05895C83.3389 7.37333 83.2802 7.68772 83.2802 8.00211C83.2802 8.30667 83.334 8.60632 83.4418 8.90105C83.5495 9.19579 83.7111 9.46105 83.9265 9.69684C84.142 9.93263 84.4113 10.1242 84.7345 10.2716C85.0576 10.4189 85.4298 10.4926 85.8509 10.4926C86.2916 10.4926 86.7323 10.414 87.173 10.2568C87.5153 10.1271 87.8104 9.96475 88.0581 9.76979C88.1369 9.70779 88.26 9.76142 88.26 9.86169C88.26 10.1125 88.4633 10.3158 88.7141 10.3158H88.8549C89.1835 10.3158 89.4499 10.0494 89.4499 9.72086V6.29263C89.4499 5.85053 89.4352 5.41825 89.4058 4.99579C89.3764 4.57333 89.2687 4.2 89.0826 3.87579C88.9063 3.55158 88.6223 3.29123 88.2306 3.09474ZM88.0396 6.98526C88.1376 7.14246 88.211 7.28 88.26 7.39789V8.53263C88.1719 8.72912 88.0592 8.91088 87.9221 9.0779C87.785 9.24491 87.6283 9.39228 87.4521 9.52C87.2856 9.63789 87.1044 9.73123 86.9085 9.8C86.7225 9.86877 86.5364 9.90316 86.3503 9.90316C86.1545 9.90316 85.9488 9.86386 85.7334 9.78526C85.5179 9.70667 85.3221 9.58877 85.1458 9.43158C84.9695 9.26456 84.8226 9.06807 84.7051 8.84211C84.5974 8.60632 84.5435 8.33123 84.5435 8.01684C84.5435 7.75158 84.5876 7.49614 84.6757 7.25053C84.7638 7.00491 84.8863 6.79368 85.043 6.61684C85.2094 6.43018 85.4102 6.28281 85.6452 6.17474C85.8803 6.05684 86.1398 5.99789 86.4238 5.99789C86.7078 5.99789 86.9526 6.05193 87.1583 6.16C87.3639 6.25825 87.5402 6.38105 87.6871 6.52842C87.834 6.67579 87.9515 6.82807 88.0396 6.98526ZM9.03955 4.71482C9.14107 4.37527 8.88677 4.0338 8.53236 4.0338C8.30545 4.0338 8.10377 4.17842 8.03098 4.39335L7.88649 4.81991C7.75125 4.61705 7.60755 4.46067 7.4554 4.35078C7.3117 4.23244 7.168 4.14791 7.0243 4.0972C6.88906 4.03803 6.75804 3.99999 6.63125 3.98308C6.51291 3.96618 6.41147 3.95773 6.32694 3.95773C5.82823 3.95773 5.36332 4.05493 4.93223 4.24935C4.50113 4.44376 4.12498 4.71003 3.80377 5.04814C3.48257 5.38625 3.22898 5.77931 3.04302 6.22731C2.86551 6.66686 2.77676 7.13599 2.77676 7.63471C2.77676 8.08271 2.84015 8.46731 2.96694 8.78852C3.10219 9.10127 3.27547 9.35909 3.48679 9.56195C3.70657 9.76482 3.9517 9.91275 4.22219 10.0057C4.50113 10.0987 4.7843 10.1452 5.0717 10.1452C5.36755 10.1452 5.64649 10.0903 5.90853 9.98037C6.0354 9.92486 6.16691 9.85541 6.30308 9.77202C6.57123 9.60778 6.91973 9.68065 7.16377 9.87893C7.30747 9.98882 7.45117 10.0733 7.59487 10.1325C7.73857 10.1917 7.87381 10.2297 8.00061 10.2466C8.13585 10.2635 8.25419 10.272 8.35562 10.272C8.80362 10.272 9.21781 10.1748 9.59819 9.98037C9.98702 9.7775 10.3251 9.50278 10.6125 9.15622C10.8999 8.8012 11.1239 8.39124 11.2845 7.92633C11.4451 7.45297 11.5254 6.95003 11.5254 6.4175C11.5254 6.06248 11.5001 5.70746 11.4494 5.35244C11.3986 4.99742 11.3099 4.65086 11.1831 4.31275C11.0309 3.92392 10.8069 3.53509 10.5111 3.14626C10.2152 2.75742 9.856 2.40663 9.43336 2.09388C9.01072 1.78112 8.52468 1.53176 7.97525 1.3458C7.42581 1.15139 6.82143 1.05418 6.16211 1.05418C5.74793 1.05418 5.33374 1.08376 4.91955 1.14293C4.51381 1.19365 4.12076 1.29086 3.74038 1.43456C3.15713 1.66278 2.63306 1.97131 2.16815 2.36014C1.7117 2.74897 1.31864 3.19275 0.988981 3.69146C0.667774 4.18173 0.422642 4.71848 0.253585 5.30173C0.0845283 5.87652 0 6.45976 0 7.05146C0 7.78686 0.135245 8.51803 0.405736 9.24497C0.676227 9.96346 1.06083 10.6101 1.55955 11.1849C2.06672 11.7681 2.67955 12.2373 3.39804 12.5923C4.12498 12.9473 4.94491 13.1248 5.85781 13.1248C6.09449 13.1248 6.3523 13.1121 6.63125 13.0868C6.91864 13.0614 7.22294 13.0023 7.54415 12.9093C7.86536 12.8163 8.20347 12.681 8.55849 12.5035C8.85824 12.3608 9.17305 12.1729 9.50293 11.9397C9.60478 11.8678 9.62372 11.7253 9.54692 11.627C9.46736 11.5252 9.31728 11.5118 9.2145 11.59C9.1443 11.6435 9.06228 11.7029 8.96845 11.7681C8.77404 11.9118 8.52468 12.0471 8.22038 12.1739C7.92453 12.3091 7.57374 12.4232 7.17645 12.5162C6.77917 12.6092 6.32694 12.6557 5.81977 12.6557C4.9914 12.6557 4.24332 12.4909 3.57555 12.1612C2.91623 11.84 2.35411 11.4131 1.88921 10.8806C1.43275 10.3565 1.07774 9.76059 0.824151 9.09282C0.579019 8.42505 0.456453 7.74882 0.456453 7.06414C0.456453 6.40482 0.55366 5.79622 0.748076 5.23833C0.950944 4.67199 1.21298 4.17327 1.53419 3.74218C1.86385 3.30263 2.23155 2.92648 2.63728 2.61373C3.05147 2.30097 3.47411 2.06007 3.90521 1.89101C4.22642 1.76422 4.55608 1.67124 4.89419 1.61207C5.24076 1.5529 5.58732 1.52331 5.93389 1.52331C6.71155 1.52331 7.41736 1.6501 8.05132 1.90369C8.68528 2.14882 9.22204 2.49116 9.66159 2.93071C10.1096 3.37025 10.4519 3.8901 10.6886 4.49025C10.9337 5.08195 11.0563 5.72437 11.0563 6.4175C11.0563 6.92467 10.9718 7.38535 10.8027 7.79954C10.6337 8.21373 10.4223 8.57297 10.1688 8.87727C9.91517 9.17312 9.63623 9.40135 9.33193 9.56195C9.03608 9.72256 8.75291 9.80286 8.48242 9.80286C8.4317 9.80286 8.3683 9.79441 8.29223 9.7775C8.22461 9.75214 8.15698 9.70988 8.08936 9.65071C8.02174 9.59154 7.96257 9.50701 7.91185 9.39712C7.86959 9.28724 7.84845 9.14354 7.84845 8.96603C7.84845 8.87305 7.86536 8.74203 7.89917 8.57297C7.94144 8.39546 8.00906 8.15456 8.10204 7.85026L9.03955 4.71482ZM6.77909 8.49587C6.71485 8.72299 6.61491 8.94116 6.44951 9.10954L6.42838 9.13086C6.3354 9.22384 6.22551 9.31259 6.09872 9.39712C5.97193 9.4732 5.83245 9.53659 5.6803 9.58731C5.52815 9.63803 5.36332 9.66339 5.18581 9.66339C4.79698 9.66339 4.50959 9.51969 4.32362 9.23229C4.13766 8.9449 4.04468 8.57297 4.04468 8.11652C4.04468 7.59244 4.1123 7.10218 4.24755 6.64573C4.38279 6.18927 4.55608 5.79622 4.7674 5.46656C4.97872 5.12844 5.2154 4.86641 5.47743 4.68044C5.74793 4.48603 6.01842 4.38882 6.28891 4.38882C6.61011 4.38882 6.88906 4.50716 7.12574 4.74384C7.26288 4.87609 7.37165 5.03388 7.45203 5.21722C7.57344 5.49413 7.53943 5.8079 7.45714 6.09884L6.77909 8.49587Z" fill="#6200A7"/>
</svg>
