<svg xmlns="http://www.w3.org/2000/svg" aria-hidden="true" style="position:absolute;width:0;height:0;overflow:hidden">
  <defs>
    <symbol id="icon-burger" viewBox="0 0 38 32">
      <path d="M0 3.2A3.2 3.2 0 0 1 3.2 0h32a3.2 3.2 0 0 1 0 6.4h-32A3.2 3.2 0 0 1 0 3.2zM0 16a3.2 3.2 0 0 1 3.2-3.2h32a3.2 3.2 0 0 1 0 6.4h-32A3.2 3.2 0 0 1 0 16zm3.2 9.6a3.2 3.2 0 0 0 0 6.4h32a3.2 3.2 0 0 0 0-6.4h-32z"/>
    </symbol>
    <symbol id="icon-logo-brand" viewBox="0 0 206 32">
      <path d="M83.595 0c.788 0 1.427.639 1.427 1.427v20.725a1.427 1.427 0 0 1-2.854 0v-1.221a.08.08 0 0 0-.08-.08.082.082 0 0 0-.075.05c-.858 2.055-2.597 3.082-5.217 3.082-1.119 0-2.149-.202-3.089-.606a7.437 7.437 0 0 1-2.451-1.785c-.672-.786-1.198-1.718-1.578-2.796-.381-1.1-.571-2.324-.571-3.672 0-1.325.19-2.526.571-3.604s.906-1.999 1.578-2.762a7.035 7.035 0 0 1 2.451-1.752c.94-.427 1.97-.64 3.089-.64.537 0 1.063.056 1.578.168.537.112 1.041.292 1.511.539s.884.573 1.242.977c.369.371.665.836.887 1.397a.08.08 0 0 0 .155-.029V1.426c0-.788.639-1.427 1.427-1.427zm-1.427 16.842v-2.931c0-.921-.134-1.74-.403-2.459-.246-.719-.582-1.325-1.007-1.819a3.988 3.988 0 0 0-1.478-1.145 4.058 4.058 0 0 0-1.779-.404c-.694 0-1.354.135-1.981.404-.627.247-1.186.662-1.679 1.246-.47.561-.85 1.291-1.141 2.189-.269.898-.403 1.987-.403 3.267 0 1.258.134 2.335.403 3.234.291.898.672 1.628 1.141 2.189s1.019.977 1.645 1.246a5.445 5.445 0 0 0 2.015.371c.649 0 1.254-.135 1.813-.404a4.686 4.686 0 0 0 1.478-1.145 5.696 5.696 0 0 0 1.007-1.718 6.139 6.139 0 0 0 .369-2.122zM30.57 30.573a1.427 1.427 0 0 0 2.854 0v-9.677a.08.08 0 0 1 .155-.029c.221.562.506 1.039.853 1.431.381.404.806.73 1.276.977s.962.427 1.477.539a7.874 7.874 0 0 0 1.612.168c1.119 0 2.149-.202 3.089-.606a7.091 7.091 0 0 0 2.418-1.785c.694-.764 1.231-1.684 1.612-2.762.381-1.1.571-2.313.571-3.638 0-1.347-.19-2.56-.571-3.638s-.918-1.999-1.612-2.762a6.534 6.534 0 0 0-2.418-1.785c-.94-.427-1.97-.64-3.089-.64-2.642 0-4.381 1.016-5.218 3.048a.08.08 0 0 1-.075.05.08.08 0 0 1-.08-.08V8.163a1.427 1.427 0 0 0-2.854 0v22.409zm2.854-14.169v-2.931c0-.741.112-1.437.336-2.088a5.195 5.195 0 0 1 1.007-1.718 4.527 4.527 0 0 1 1.477-1.145 4.065 4.065 0 0 1 1.847-.438c.694 0 1.354.135 1.981.404.649.247 1.209.651 1.679 1.213s.839 1.291 1.108 2.189c.291.898.437 1.976.437 3.234 0 1.28-.146 2.369-.437 3.267-.269.898-.649 1.639-1.142 2.223a4.401 4.401 0 0 1-1.645 1.246 5.355 5.355 0 0 1-1.981.371c-.627 0-1.22-.124-1.78-.371a4.517 4.517 0 0 1-1.477-1.145 6.72 6.72 0 0 1-1.075-1.886c-.246-.719-.336-1.505-.336-2.425zm31.61-.505a.707.707 0 0 0 .707-.707c0-1.505-.213-2.807-.638-3.907s-1.007-2.01-1.746-2.728c-.716-.719-1.556-1.258-2.518-1.617s-1.981-.539-3.056-.539c-1.142 0-2.194.202-3.156.606a6.904 6.904 0 0 0-2.518 1.718c-.716.741-1.276 1.651-1.679 2.728-.403 1.055-.604 2.257-.604 3.604 0 1.123.168 2.223.504 3.301a9.166 9.166 0 0 0 1.578 2.863c.716.831 1.612 1.505 2.686 2.021 1.097.494 2.384.741 3.861.741 1.433 0 2.753-.247 3.962-.741a9.427 9.427 0 0 0 2.598-1.647c.323-.289.314-.787.009-1.094a.81.81 0 0 0-1.092-.046c-.267.222-.525.432-.776.631-.403.337-.817.618-1.242.842s-.873.404-1.343.539a6.237 6.237 0 0 1-1.511.168c-.627 0-1.298-.09-2.015-.27-.694-.202-1.343-.55-1.947-1.044s-1.108-1.179-1.511-2.055c-.796-1.73.939-3.368 2.844-3.368h8.603zm-9.439-1.347c-1.443 0-2.648-1.183-2.344-2.594.201-.853.493-1.606.873-2.257a4.756 4.756 0 0 1 1.511-1.549c.604-.404 1.321-.606 2.149-.606 1.589 0 2.821.629 3.694 1.886.156.215.298.443.426.687 1.18 2.232-1.13 4.434-3.654 4.434h-2.654zm33.104 7.856c0 .67.543 1.213 1.213 1.213h21.045a1.213 1.213 0 1 0 0-2.426H89.912c-.67 0-1.213.543-1.213 1.213zm30.011-.256a1.427 1.427 0 0 1-2.854 0V8.164a1.427 1.427 0 0 1 2.854 0v1.221c0 .044.036.08.08.08.033 0 .062-.02.075-.05.265-.628.594-1.14.987-1.533.425-.404.873-.719 1.343-.943s.94-.371 1.41-.438c.47-.09.873-.135 1.209-.135.739 0 1.365.101 1.88.303.537.202.996.46 1.377.775s.694.662.94 1.044c.22.321.395.642.526.963a.182.182 0 0 0 .168.115c.068 0 .13-.039.161-.1.325-.65.7-1.178 1.126-1.584.47-.427.951-.752 1.444-.977s.963-.37 1.41-.438.84-.101 1.175-.101c1.164 0 2.093.191 2.787.573.716.359 1.254.82 1.612 1.381.381.539.627 1.134.739 1.785.112.629.168 1.201.168 1.718v10.329a1.427 1.427 0 0 1-2.854 0V12.8c0-.764-.045-1.437-.134-2.021-.067-.584-.224-1.078-.47-1.482-.224-.404-.548-.707-.974-.909s-.985-.303-1.679-.303c-.94 0-1.69.213-2.25.64-.537.427-.951.943-1.242 1.55s-.481 1.258-.571 1.954a13.647 13.647 0 0 0-.134 1.752v8.173a1.427 1.427 0 0 1-2.854 0v-9.352c0-.404-.022-.876-.067-1.415-.022-.539-.134-1.055-.336-1.549s-.515-.909-.94-1.246c-.403-.337-.985-.505-1.746-.505-1.052 0-1.869.236-2.451.707a4.235 4.235 0 0 0-1.309 1.651 6.601 6.601 0 0 0-.504 1.954 16.18 16.18 0 0 0-.101 1.583v8.173zm35.973-15.078c-.895-.472-2.16-.707-3.794-.707-.985 0-1.824.09-2.518.269a7.428 7.428 0 0 0-1.813.64 6.201 6.201 0 0 0-1.276.909l-.239.242a1.081 1.081 0 0 0 .016 1.522c.506.508 1.35.402 1.777-.174.053-.071.105-.141.158-.209a4.954 4.954 0 0 1 1.007-1.044c.381-.292.806-.516 1.276-.674s1.018-.236 1.645-.236c1.455 0 2.451.449 2.988 1.347.56.898.839 2.268.839 4.11 0 .483-.659.74-1.051.459a6.01 6.01 0 0 0-1.198-.661c-.895-.404-1.847-.606-2.854-.606s-1.903.18-2.686.539a6.106 6.106 0 0 0-1.981 1.415c-.537.561-.94 1.201-1.209 1.92s-.403 1.437-.403 2.156c0 .696.123 1.381.369 2.055s.616 1.28 1.108 1.819c.493.539 1.108.977 1.847 1.314s1.589.505 2.552.505c1.007 0 2.015-.18 3.022-.539.782-.296 1.457-.668 2.023-1.113.18-.142.461-.019.461.21 0 .573.465 1.038 1.038 1.038h.322a1.36 1.36 0 0 0 1.36-1.36v-7.836c0-1.011-.034-1.999-.101-2.964s-.313-1.819-.739-2.56c-.403-.741-1.052-1.336-1.947-1.785zm-.437 8.892c.224.359.392.674.504.943v2.594c-.201.449-.459.865-.772 1.246s-.671.719-1.074 1.011a5.038 5.038 0 0 1-1.242.64 3.664 3.664 0 0 1-1.276.236c-.448 0-.918-.09-1.41-.27s-.94-.449-1.343-.808a5.04 5.04 0 0 1-1.007-1.347c-.246-.539-.369-1.168-.369-1.886 0-.606.101-1.19.302-1.752s.481-1.044.84-1.448c.38-.427.839-.764 1.376-1.011.537-.27 1.131-.404 1.78-.404s1.209.124 1.679.371c.47.225.873.505 1.209.842s.604.685.806 1.044zm11.451 6.186a1.427 1.427 0 0 1-2.854 0V8.164c0-.788.639-1.427 1.427-1.427h.063c.753 0 1.364.611 1.364 1.364v1.284c0 .044.036.08.08.08.033 0 .062-.02.075-.05.265-.628.594-1.14.987-1.533.425-.404.873-.719 1.343-.943s.94-.371 1.41-.438c.47-.09.873-.135 1.209-.135.738 0 1.365.101 1.88.303.537.202.996.46 1.377.775s.694.662.94 1.044c.22.321.395.642.526.963a.182.182 0 0 0 .168.115c.068 0 .13-.039.161-.1.325-.65.7-1.178 1.126-1.584.47-.427.951-.752 1.444-.977s.963-.37 1.41-.438.839-.101 1.175-.101c1.164 0 2.093.191 2.787.573.716.359 1.254.82 1.612 1.381.381.539.627 1.134.739 1.785.112.629.168 1.201.168 1.718v10.329a1.427 1.427 0 0 1-2.854 0V12.8c0-.764-.045-1.437-.134-2.021-.067-.584-.224-1.078-.47-1.482-.224-.404-.549-.707-.974-.909s-.985-.303-1.679-.303c-.94 0-1.69.213-2.25.64-.537.427-.951.943-1.242 1.55s-.481 1.258-.571 1.954a13.647 13.647 0 0 0-.134 1.752v8.173a1.427 1.427 0 0 1-2.854 0v-9.352c0-.404-.022-.876-.067-1.415-.022-.539-.134-1.055-.336-1.549s-.515-.909-.94-1.246c-.403-.337-.985-.505-1.746-.505-1.052 0-1.869.236-2.451.707a4.256 4.256 0 0 0-1.31 1.651 6.632 6.632 0 0 0-.504 1.954 16.18 16.18 0 0 0-.101 1.583v8.173zM201.67 7.074c-.895-.472-2.16-.707-3.794-.707-.985 0-1.824.09-2.518.269a7.428 7.428 0 0 0-1.813.64 6.201 6.201 0 0 0-1.276.909l-.239.242a1.081 1.081 0 0 0 .016 1.522c.506.508 1.35.402 1.777-.174.053-.071.105-.141.158-.209a4.954 4.954 0 0 1 1.007-1.044c.38-.292.806-.516 1.276-.674s1.018-.236 1.645-.236c1.455 0 2.451.449 2.988 1.347.56.898.839 2.268.839 4.11 0 .483-.659.74-1.051.459a6.01 6.01 0 0 0-1.198-.661c-.895-.404-1.847-.606-2.854-.606s-1.903.18-2.686.539a6.106 6.106 0 0 0-1.981 1.415c-.537.561-.94 1.201-1.209 1.92s-.403 1.437-.403 2.156c0 .696.123 1.381.369 2.055s.616 1.28 1.108 1.819c.493.539 1.108.977 1.847 1.314s1.589.505 2.552.505c1.007 0 2.015-.18 3.022-.539.782-.296 1.457-.668 2.023-1.113.18-.142.462-.019.462.21 0 .573.465 1.038 1.038 1.038h.322a1.36 1.36 0 0 0 1.36-1.36v-7.836c0-1.011-.034-1.999-.101-2.964s-.313-1.819-.739-2.56c-.403-.741-1.052-1.336-1.947-1.785zm-.437 8.892c.224.359.392.674.504.943v2.594c-.201.449-.459.865-.772 1.246s-.672.719-1.074 1.011a5.027 5.027 0 0 1-1.243.64 3.664 3.664 0 0 1-1.276.236c-.448 0-.918-.09-1.41-.27s-.94-.449-1.343-.808a5.04 5.04 0 0 1-1.007-1.347c-.246-.539-.369-1.168-.369-1.886 0-.606.101-1.19.302-1.752s.481-1.044.84-1.448c.38-.427.839-.764 1.376-1.011.537-.27 1.131-.404 1.78-.404s1.209.124 1.679.371c.47.225.873.505 1.209.842s.604.685.806 1.044zM20.662 10.777a1.21 1.21 0 0 0-2.305-.735l-.33.975c-.309-.464-.638-.821-.985-1.072a3.277 3.277 0 0 0-.985-.58 3.378 3.378 0 0 0-.898-.261 4.977 4.977 0 0 0-.696-.058c-1.14 0-2.203.222-3.188.667s-1.845 1.053-2.579 1.826a8.738 8.738 0 0 0-1.739 2.695 8.505 8.505 0 0 0-.609 3.217c0 1.024.145 1.903.435 2.637.309.715.705 1.304 1.188 1.768a4.71 4.71 0 0 0 1.681 1.014 6.094 6.094 0 0 0 1.942.319c.676 0 1.314-.125 1.913-.377a7.55 7.55 0 0 0 .902-.476c.613-.375 1.409-.209 1.967.244.328.251.657.444.985.58s.638.222.927.261c.309.039.58.058.811.058a6.14 6.14 0 0 0 2.84-.667 7.483 7.483 0 0 0 2.318-1.884 9.192 9.192 0 0 0 1.536-2.811c.367-1.082.551-2.232.551-3.449 0-.811-.058-1.623-.174-2.434s-.319-1.604-.609-2.376c-.348-.889-.86-1.777-1.536-2.666s-1.497-1.691-2.463-2.405-2.077-1.285-3.333-1.71c-1.256-.444-2.637-.667-4.144-.667-.947 0-1.893.068-2.84.203-.927.116-1.826.338-2.695.667a12.877 12.877 0 0 0-3.594 2.116 14.433 14.433 0 0 0-2.695 3.043A13.582 13.582 0 0 0 .58 12.12 14.12 14.12 0 0 0 0 16.119c0 1.681.309 3.352.927 5.014a14.51 14.51 0 0 0 2.637 4.434 13.33 13.33 0 0 0 4.202 3.217c1.662.811 3.536 1.217 5.622 1.217.541 0 1.13-.029 1.768-.087.657-.058 1.352-.193 2.087-.406s1.507-.522 2.319-.928a14.795 14.795 0 0 0 2.159-1.289.499.499 0 0 0 .101-.715.548.548 0 0 0-.76-.085c-.16.122-.348.258-.562.407-.444.328-1.014.638-1.71.928-.676.309-1.478.57-2.386.782s-1.942.319-3.101.319c-1.893 0-3.603-.377-5.13-1.13a12.063 12.063 0 0 1-3.854-2.927 13.415 13.415 0 0 1-2.434-4.086 13.37 13.37 0 0 1-.84-4.637c0-1.507.222-2.898.667-4.173.464-1.294 1.063-2.434 1.797-3.42A13.339 13.339 0 0 1 6.03 5.975c.947-.715 1.913-1.266 2.898-1.652.734-.29 1.488-.502 2.261-.638a14.117 14.117 0 0 1 2.376-.203c1.777 0 3.391.29 4.84.869 1.449.56 2.676 1.343 3.681 2.347a10.146 10.146 0 0 1 2.347 3.565c.56 1.352.84 2.821.84 4.405 0 1.159-.193 2.212-.58 3.159s-.869 1.768-1.449 2.463c-.58.676-1.217 1.198-1.913 1.565-.676.367-1.323.551-1.942.551-.116 0-.261-.019-.435-.058-.155-.058-.309-.155-.464-.29s-.29-.328-.406-.58c-.097-.251-.145-.58-.145-.985 0-.213.039-.512.116-.898.097-.406.251-.956.464-1.652l2.143-7.167zm-5.167 8.642c-.147.519-.375 1.018-.753 1.403l-.048.049a4.963 4.963 0 0 1-.754.609c-.29.174-.609.319-.956.435s-.725.174-1.13.174c-.889 0-1.546-.328-1.971-.985s-.638-1.507-.638-2.55c0-1.198.155-2.319.464-3.362s.705-1.942 1.188-2.695c.483-.773 1.024-1.372 1.623-1.797.618-.444 1.237-.667 1.855-.667.734 0 1.372.271 1.913.811.313.302.562.663.746 1.082.277.633.2 1.35.012 2.015l-1.55 5.479z" style="fill:var(--color1, #6200a7)"/>
    </symbol>
    <symbol id="icon-facebook" viewBox="0 0 28 28">
       <path fill-rule="evenodd" clip-rule="evenodd" d="M10 3H26C29.866 3 33 6.13401 33 10V26C33 29.866 29.866 33 26 33H22.907V23.9813H26.07L26.9683 20.0692H22.9075V17.3967C22.907 16.3023 23.505 15.1226 25.0766 15.1226H26.9694V11.003L24.1185 11C20.0798 11 18.1629 13.4037 18.1629 16.8259V20.0677H15V23.9818H18.1629V33H10C6.13401 33 3 29.866 3 26V10C3 6.13401 6.13401 3 10 3ZM0 10C0 4.47715 4.47715 0 10 0H26C31.5228 0 36 4.47715 36 10V26C36 31.5228 31.5228 36 26 36H10C4.47715 36 0 31.5228 0 26V10Z"/>
    </symbol>
    <symbol id="icon-instagram" viewBox="0 0 28 28">
        <path fill-rule="evenodd" clip-rule="evenodd" d="M26 3H10C6.13401 3 3 6.13401 3 10V26C3 29.866 6.13401 33 10 33H26C29.866 33 33 29.866 33 26V10C33 6.13401 29.866 3 26 3ZM10 0C4.47715 0 0 4.47715 0 10V26C0 31.5228 4.47715 36 10 36H26C31.5228 36 36 31.5228 36 26V10C36 4.47715 31.5228 0 26 0H10ZM18 24C21.3137 24 24 21.3137 24 18C24 14.6863 21.3137 12 18 12C14.6863 12 12 14.6863 12 18C12 21.3137 14.6863 24 18 24ZM18 27C22.9706 27 27 22.9706 27 18C27 13.0294 22.9706 9 18 9C13.0294 9 9 13.0294 9 18C9 22.9706 13.0294 27 18 27ZM28 10C29.1046 10 30 9.10457 30 8C30 6.89543 29.1046 6 28 6C26.8954 6 26 6.89543 26 8C26 9.10457 26.8954 10 28 10Z"/>
    </symbol>
    <symbol id="icon-Vector" viewBox="0 0 32 32">
      <path d="M2.462 32 0 29.539 13.538 16 0 2.462 2.462 0 16 13.538 29.539 0 32 2.462 18.461 16 32 29.539 29.539 32 16 18.461 2.462 32z"/>
    </symbol>
    <symbol id="icon-Vector-bg" viewBox="0 0 13 32">
      <path d="M23.111 2.667H8.889a6.222 6.222 0 0 0-6.222 6.222v14.222a6.222 6.222 0 0 0 6.222 6.222h14.222a6.222 6.222 0 0 0 6.222-6.222V8.889a6.222 6.222 0 0 0-6.222-6.222zM8.889 0A8.89 8.89 0 0 0 0 8.889v14.222A8.89 8.89 0 0 0 8.889 32h14.222A8.89 8.89 0 0 0 32 23.111V8.889A8.89 8.89 0 0 0 23.111 0H8.889zM16 21.333a5.333 5.333 0 1 0 0-10.667 5.333 5.333 0 0 0 0 10.667zM16 24a8 8 0 1 0 0-16 8 8 0 0 0 0 16zm8.889-15.111a1.778 1.778 0 1 0 0-3.556 1.778 1.778 0 0 0 0 3.556z"/>
    </symbol>
  </defs>
</svg>